<svg width="762" height="380" viewBox="0 0 762 380" fill="none" xmlns="http://www.w3.org/2000/svg">
<rect y="0.103027" width="602.643" height="379.363" fill="#FBF2FA"/>
<ellipse cx="608.864" cy="188.925" rx="152.833" ry="188.822" fill="#FBF2FA"/>
<path d="M119.343 122.309C115.348 122.309 111.727 121.451 108.479 119.733C105.268 117.979 102.73 115.571 100.863 112.509C99.0336 109.411 98.1189 105.92 98.1189 102.037C98.1189 98.1547 99.0336 94.6827 100.863 91.6213C102.73 88.5227 105.268 86.1147 108.479 84.3973C111.727 82.6427 115.367 81.7653 119.399 81.7653C122.796 81.7653 125.858 82.3627 128.583 83.5573C131.346 84.752 133.66 86.4693 135.527 88.7093L129.703 94.0853C127.052 91.024 123.767 89.4933 119.847 89.4933C117.42 89.4933 115.255 90.0347 113.351 91.1173C111.447 92.1627 109.954 93.6373 108.871 95.5413C107.826 97.4453 107.303 99.6107 107.303 102.037C107.303 104.464 107.826 106.629 108.871 108.533C109.954 110.437 111.447 111.931 113.351 113.013C115.255 114.059 117.42 114.581 119.847 114.581C123.767 114.581 127.052 113.032 129.703 109.933L135.527 115.309C133.66 117.587 131.346 119.323 128.583 120.517C125.82 121.712 122.74 122.309 119.343 122.309ZM166.629 121.637L159.069 110.717H158.621H150.725V121.637H141.653V82.4373H158.621C162.093 82.4373 165.099 83.016 167.637 84.1733C170.213 85.3307 172.192 86.9733 173.573 89.1013C174.955 91.2293 175.645 93.7493 175.645 96.6613C175.645 99.5733 174.936 102.093 173.517 104.221C172.136 106.312 170.157 107.917 167.581 109.037L176.373 121.637H166.629ZM166.461 96.6613C166.461 94.4587 165.752 92.7787 164.333 91.6213C162.915 90.4267 160.843 89.8293 158.117 89.8293H150.725V103.493H158.117C160.843 103.493 162.915 102.896 164.333 101.701C165.752 100.507 166.461 98.8267 166.461 96.6613ZM213.185 114.357V121.637H182.833V82.4373H212.457V89.7173H191.849V98.2293H210.049V105.285H191.849V114.357H213.185ZM246.219 113.237H228.019L224.547 121.637H215.251L232.723 82.4373H241.683L259.211 121.637H249.691L246.219 113.237ZM243.363 106.349L237.147 91.3413L230.931 106.349H243.363ZM271.398 89.8293H258.854V82.4373H293.014V89.8293H280.47V121.637H271.398V89.8293ZM328.247 114.357V121.637H297.895V82.4373H327.519V89.7173H306.911V98.2293H325.111V105.285H306.911V114.357H328.247ZM338.154 122.085C336.623 122.085 335.335 121.563 334.29 120.517C333.244 119.472 332.722 118.165 332.722 116.597C332.722 114.992 333.244 113.704 334.29 112.733C335.335 111.725 336.623 111.221 338.154 111.221C339.684 111.221 340.972 111.725 342.018 112.733C343.063 113.704 343.586 114.992 343.586 116.597C343.586 118.165 343.063 119.472 342.018 120.517C340.972 121.563 339.684 122.085 338.154 122.085ZM100.583 152.437H118.391C122.647 152.437 126.399 153.259 129.647 154.901C132.932 156.507 135.471 158.784 137.263 161.733C139.092 164.683 140.007 168.117 140.007 172.037C140.007 175.957 139.092 179.392 137.263 182.341C135.471 185.291 132.932 187.587 129.647 189.229C126.399 190.835 122.647 191.637 118.391 191.637H100.583V152.437ZM117.943 184.189C121.863 184.189 124.98 183.107 127.295 180.941C129.647 178.739 130.823 175.771 130.823 172.037C130.823 168.304 129.647 165.355 127.295 163.189C124.98 160.987 121.863 159.885 117.943 159.885H109.655V184.189H117.943ZM177.201 184.357V191.637H146.849V152.437H176.473V159.717H155.865V168.229H174.065V175.285H155.865V184.357H177.201ZM222.107 152.437L205.139 191.637H196.179L179.267 152.437H189.067L200.995 180.437L213.091 152.437H222.107ZM256.552 184.357V191.637H226.2V152.437H255.824V159.717H235.216V168.229H253.416V175.285H235.216V184.357H256.552ZM263.77 152.437H272.842V184.245H292.498V191.637H263.77V152.437ZM316.551 192.309C312.482 192.309 308.805 191.432 305.519 189.677C302.271 187.923 299.714 185.515 297.847 182.453C296.018 179.355 295.103 175.883 295.103 172.037C295.103 168.192 296.018 164.739 297.847 161.677C299.714 158.579 302.271 156.152 305.519 154.397C308.805 152.643 312.482 151.765 316.551 151.765C320.621 151.765 324.279 152.643 327.527 154.397C330.775 156.152 333.333 158.579 335.199 161.677C337.066 164.739 337.999 168.192 337.999 172.037C337.999 175.883 337.066 179.355 335.199 182.453C333.333 185.515 330.775 187.923 327.527 189.677C324.279 191.432 320.621 192.309 316.551 192.309ZM316.551 184.581C318.866 184.581 320.957 184.059 322.823 183.013C324.69 181.931 326.146 180.437 327.191 178.533C328.274 176.629 328.815 174.464 328.815 172.037C328.815 169.611 328.274 167.445 327.191 165.541C326.146 163.637 324.69 162.163 322.823 161.117C320.957 160.035 318.866 159.493 316.551 159.493C314.237 159.493 312.146 160.035 310.279 161.117C308.413 162.163 306.938 163.637 305.855 165.541C304.81 167.445 304.287 169.611 304.287 172.037C304.287 174.464 304.81 176.629 305.855 178.533C306.938 180.437 308.413 181.931 310.279 183.013C312.146 184.059 314.237 184.581 316.551 184.581ZM361.785 152.437C365.257 152.437 368.263 153.016 370.801 154.173C373.377 155.331 375.356 156.973 376.737 159.101C378.119 161.229 378.809 163.749 378.809 166.661C378.809 169.536 378.119 172.056 376.737 174.221C375.356 176.349 373.377 177.992 370.801 179.149C368.263 180.269 365.257 180.829 361.785 180.829H353.889V191.637H344.817V152.437H361.785ZM361.281 173.437C364.007 173.437 366.079 172.859 367.497 171.701C368.916 170.507 369.625 168.827 369.625 166.661C369.625 164.459 368.916 162.779 367.497 161.621C366.079 160.427 364.007 159.829 361.281 159.829H353.889V173.437H361.281ZM388.521 192.085C386.99 192.085 385.702 191.563 384.657 190.517C383.612 189.472 383.089 188.165 383.089 186.597C383.089 184.992 383.612 183.704 384.657 182.733C385.702 181.725 386.99 181.221 388.521 181.221C390.052 181.221 391.34 181.725 392.385 182.733C393.43 183.704 393.953 184.992 393.953 186.597C393.953 188.165 393.43 189.472 392.385 190.517C391.34 191.563 390.052 192.085 388.521 192.085Z" fill="black"/>
<path d="M99.3509 240.909H107.107C109.142 240.909 110.943 241.329 112.511 242.169C114.098 243.009 115.33 244.176 116.207 245.669C117.084 247.144 117.523 248.824 117.523 250.709C117.523 252.595 117.084 254.284 116.207 255.777C115.33 257.252 114.098 258.409 112.511 259.249C110.943 260.089 109.142 260.509 107.107 260.509H99.3509V240.909ZM106.995 259.221C108.806 259.221 110.402 258.867 111.783 258.157C113.164 257.429 114.228 256.421 114.975 255.133C115.722 253.845 116.095 252.371 116.095 250.709C116.095 249.048 115.722 247.573 114.975 246.285C114.228 244.997 113.164 243.999 111.783 243.289C110.402 242.561 108.806 242.197 106.995 242.197H100.779V259.221H106.995ZM134.384 253.537H121.812C121.849 254.676 122.138 255.693 122.68 256.589C123.221 257.467 123.949 258.148 124.864 258.633C125.797 259.119 126.842 259.361 128 259.361C128.952 259.361 129.829 259.193 130.632 258.857C131.453 258.503 132.134 257.989 132.676 257.317L133.488 258.241C132.853 259.007 132.05 259.595 131.08 260.005C130.128 260.416 129.092 260.621 127.972 260.621C126.516 260.621 125.218 260.304 124.08 259.669C122.941 259.035 122.045 258.157 121.392 257.037C120.757 255.917 120.44 254.639 120.44 253.201C120.44 251.783 120.738 250.513 121.336 249.393C121.952 248.255 122.792 247.368 123.856 246.733C124.92 246.099 126.114 245.781 127.44 245.781C128.765 245.781 129.95 246.099 130.996 246.733C132.06 247.349 132.89 248.217 133.488 249.337C134.104 250.457 134.412 251.727 134.412 253.145L134.384 253.537ZM127.44 247.013C126.413 247.013 125.489 247.247 124.668 247.713C123.846 248.161 123.184 248.805 122.68 249.645C122.194 250.467 121.914 251.4 121.84 252.445H133.04C132.984 251.4 132.704 250.467 132.2 249.645C131.696 248.824 131.033 248.18 130.212 247.713C129.39 247.247 128.466 247.013 127.44 247.013ZM150.475 245.893L143.867 260.509H142.439L135.859 245.893H137.343L143.167 258.969L149.047 245.893H150.475ZM153.536 239.733H154.936V260.509H153.536V239.733ZM166.549 260.621C165.167 260.621 163.917 260.304 162.797 259.669C161.695 259.035 160.827 258.157 160.193 257.037C159.558 255.899 159.241 254.62 159.241 253.201C159.241 251.783 159.558 250.513 160.193 249.393C160.827 248.255 161.695 247.368 162.797 246.733C163.917 246.099 165.167 245.781 166.549 245.781C167.93 245.781 169.171 246.099 170.273 246.733C171.393 247.368 172.27 248.255 172.905 249.393C173.539 250.513 173.857 251.783 173.857 253.201C173.857 254.62 173.539 255.899 172.905 257.037C172.27 258.157 171.393 259.035 170.273 259.669C169.171 260.304 167.93 260.621 166.549 260.621ZM166.549 259.361C167.669 259.361 168.667 259.1 169.545 258.577C170.441 258.055 171.141 257.327 171.645 256.393C172.167 255.46 172.429 254.396 172.429 253.201C172.429 252.007 172.167 250.943 171.645 250.009C171.141 249.076 170.441 248.348 169.545 247.825C168.667 247.303 167.669 247.041 166.549 247.041C165.429 247.041 164.421 247.303 163.525 247.825C162.647 248.348 161.947 249.076 161.425 250.009C160.921 250.943 160.669 252.007 160.669 253.201C160.669 254.396 160.921 255.46 161.425 256.393C161.947 257.327 162.647 258.055 163.525 258.577C164.421 259.1 165.429 259.361 166.549 259.361ZM185.536 245.781C186.898 245.781 188.13 246.099 189.232 246.733C190.333 247.368 191.192 248.245 191.808 249.365C192.442 250.485 192.76 251.764 192.76 253.201C192.76 254.639 192.442 255.927 191.808 257.065C191.192 258.185 190.333 259.063 189.232 259.697C188.13 260.313 186.898 260.621 185.536 260.621C184.248 260.621 183.081 260.323 182.036 259.725C180.99 259.109 180.178 258.26 179.6 257.177V265.941H178.2V245.893H179.544V249.337C180.122 248.217 180.934 247.349 181.98 246.733C183.044 246.099 184.229 245.781 185.536 245.781ZM185.452 259.361C186.572 259.361 187.58 259.1 188.476 258.577C189.372 258.055 190.072 257.327 190.576 256.393C191.098 255.46 191.36 254.396 191.36 253.201C191.36 252.007 191.098 250.943 190.576 250.009C190.072 249.076 189.372 248.348 188.476 247.825C187.58 247.303 186.572 247.041 185.452 247.041C184.332 247.041 183.324 247.303 182.428 247.825C181.55 248.348 180.85 249.076 180.328 250.009C179.824 250.943 179.572 252.007 179.572 253.201C179.572 254.396 179.824 255.46 180.328 256.393C180.85 257.327 181.55 258.055 182.428 258.577C183.324 259.1 184.332 259.361 185.452 259.361ZM197.094 245.893H198.494V260.509H197.094V245.893ZM197.794 242.337C197.477 242.337 197.206 242.235 196.982 242.029C196.758 241.805 196.646 241.535 196.646 241.217C196.646 240.9 196.758 240.629 196.982 240.405C197.206 240.181 197.477 240.069 197.794 240.069C198.112 240.069 198.382 240.181 198.606 240.405C198.83 240.611 198.942 240.872 198.942 241.189C198.942 241.507 198.83 241.777 198.606 242.001C198.382 242.225 198.112 242.337 197.794 242.337ZM211.535 245.781C213.364 245.781 214.811 246.313 215.875 247.377C216.939 248.441 217.471 249.972 217.471 251.969V260.509H216.071V252.081C216.071 250.439 215.651 249.188 214.811 248.329C213.99 247.471 212.832 247.041 211.339 247.041C209.622 247.041 208.268 247.555 207.279 248.581C206.29 249.608 205.795 250.989 205.795 252.725V260.509H204.395V245.893H205.739V249.057C206.243 248.031 206.99 247.228 207.979 246.649C208.987 246.071 210.172 245.781 211.535 245.781ZM236.395 245.893V258.941C236.395 261.368 235.807 263.16 234.631 264.317C233.455 265.475 231.682 266.053 229.311 266.053C227.967 266.053 226.698 265.848 225.503 265.437C224.308 265.027 223.347 264.457 222.619 263.729L223.375 262.665C224.103 263.337 224.98 263.86 226.007 264.233C227.034 264.607 228.126 264.793 229.283 264.793C231.224 264.793 232.662 264.327 233.595 263.393C234.528 262.479 234.995 261.051 234.995 259.109V256.645C234.398 257.709 233.567 258.531 232.503 259.109C231.439 259.688 230.244 259.977 228.919 259.977C227.556 259.977 226.315 259.679 225.195 259.081C224.094 258.465 223.226 257.616 222.591 256.533C221.956 255.451 221.639 254.228 221.639 252.865C221.639 251.503 221.956 250.28 222.591 249.197C223.226 248.115 224.094 247.275 225.195 246.677C226.315 246.08 227.556 245.781 228.919 245.781C230.263 245.781 231.476 246.08 232.559 246.677C233.642 247.275 234.472 248.115 235.051 249.197V245.893H236.395ZM229.031 258.717C230.17 258.717 231.196 258.475 232.111 257.989C233.026 257.485 233.735 256.795 234.239 255.917C234.762 255.021 235.023 254.004 235.023 252.865C235.023 251.727 234.762 250.719 234.239 249.841C233.735 248.964 233.026 248.283 232.111 247.797C231.196 247.293 230.17 247.041 229.031 247.041C227.892 247.041 226.866 247.293 225.951 247.797C225.055 248.283 224.346 248.964 223.823 249.841C223.319 250.719 223.067 251.727 223.067 252.865C223.067 254.004 223.319 255.021 223.823 255.917C224.346 256.795 225.055 257.485 225.951 257.989C226.866 258.475 227.892 258.717 229.031 258.717ZM262.308 245.893V260.509H260.964V257.373C260.479 258.4 259.76 259.203 258.808 259.781C257.856 260.341 256.736 260.621 255.448 260.621C253.544 260.621 252.051 260.089 250.968 259.025C249.886 257.961 249.344 256.431 249.344 254.433V245.893H250.744V254.321C250.744 255.964 251.164 257.215 252.004 258.073C252.844 258.932 254.03 259.361 255.56 259.361C257.203 259.361 258.5 258.848 259.452 257.821C260.423 256.795 260.908 255.413 260.908 253.677V245.893H262.308ZM271.939 260.621C270.763 260.621 269.643 260.444 268.579 260.089C267.515 259.735 266.684 259.287 266.087 258.745L266.731 257.625C267.328 258.129 268.093 258.549 269.027 258.885C269.979 259.221 270.968 259.389 271.995 259.389C273.469 259.389 274.552 259.147 275.243 258.661C275.952 258.176 276.307 257.504 276.307 256.645C276.307 256.029 276.111 255.544 275.719 255.189C275.345 254.835 274.879 254.573 274.319 254.405C273.759 254.237 272.984 254.06 271.995 253.873C270.837 253.668 269.904 253.444 269.195 253.201C268.485 252.959 267.879 252.567 267.375 252.025C266.871 251.484 266.619 250.737 266.619 249.785C266.619 248.628 267.095 247.676 268.047 246.929C269.017 246.164 270.389 245.781 272.163 245.781C273.096 245.781 274.02 245.912 274.935 246.173C275.849 246.435 276.596 246.78 277.175 247.209L276.531 248.329C275.933 247.9 275.252 247.573 274.487 247.349C273.721 247.125 272.937 247.013 272.135 247.013C270.772 247.013 269.745 247.265 269.055 247.769C268.364 248.273 268.019 248.936 268.019 249.757C268.019 250.411 268.215 250.924 268.607 251.297C268.999 251.652 269.475 251.923 270.035 252.109C270.613 252.277 271.416 252.464 272.443 252.669C273.581 252.875 274.496 253.099 275.187 253.341C275.896 253.565 276.493 253.939 276.979 254.461C277.464 254.984 277.707 255.703 277.707 256.617C277.707 257.831 277.203 258.801 276.195 259.529C275.187 260.257 273.768 260.621 271.939 260.621ZM293.962 253.537H281.39C281.427 254.676 281.717 255.693 282.258 256.589C282.799 257.467 283.527 258.148 284.442 258.633C285.375 259.119 286.421 259.361 287.578 259.361C288.53 259.361 289.407 259.193 290.21 258.857C291.031 258.503 291.713 257.989 292.254 257.317L293.066 258.241C292.431 259.007 291.629 259.595 290.658 260.005C289.706 260.416 288.67 260.621 287.55 260.621C286.094 260.621 284.797 260.304 283.658 259.669C282.519 259.035 281.623 258.157 280.97 257.037C280.335 255.917 280.018 254.639 280.018 253.201C280.018 251.783 280.317 250.513 280.914 249.393C281.53 248.255 282.37 247.368 283.434 246.733C284.498 246.099 285.693 245.781 287.018 245.781C288.343 245.781 289.529 246.099 290.574 246.733C291.638 247.349 292.469 248.217 293.066 249.337C293.682 250.457 293.99 251.727 293.99 253.145L293.962 253.537ZM287.018 247.013C285.991 247.013 285.067 247.247 284.246 247.713C283.425 248.161 282.762 248.805 282.258 249.645C281.773 250.467 281.493 251.4 281.418 252.445H292.618C292.562 251.4 292.282 250.467 291.778 249.645C291.274 248.824 290.611 248.18 289.79 247.713C288.969 247.247 288.045 247.013 287.018 247.013ZM299.665 249.085C300.113 248.021 300.813 247.209 301.765 246.649C302.717 246.071 303.874 245.781 305.237 245.781V247.153L304.901 247.125C303.277 247.125 302.008 247.639 301.093 248.665C300.178 249.673 299.721 251.083 299.721 252.893V260.509H298.321V245.893H299.665V249.085ZM317.876 249.085C318.324 248.021 319.024 247.209 319.976 246.649C320.928 246.071 322.085 245.781 323.448 245.781V247.153L323.112 247.125C321.488 247.125 320.219 247.639 319.304 248.665C318.389 249.673 317.932 251.083 317.932 252.893V260.509H316.532V245.893H317.876V249.085ZM339.899 253.537H327.327C327.365 254.676 327.654 255.693 328.195 256.589C328.737 257.467 329.465 258.148 330.379 258.633C331.313 259.119 332.358 259.361 333.515 259.361C334.467 259.361 335.345 259.193 336.147 258.857C336.969 258.503 337.65 257.989 338.191 257.317L339.003 258.241C338.369 259.007 337.566 259.595 336.595 260.005C335.643 260.416 334.607 260.621 333.487 260.621C332.031 260.621 330.734 260.304 329.595 259.669C328.457 259.035 327.561 258.157 326.907 257.037C326.273 255.917 325.955 254.639 325.955 253.201C325.955 251.783 326.254 250.513 326.851 249.393C327.467 248.255 328.307 247.368 329.371 246.733C330.435 246.099 331.63 245.781 332.955 245.781C334.281 245.781 335.466 246.099 336.511 246.733C337.575 247.349 338.406 248.217 339.003 249.337C339.619 250.457 339.927 251.727 339.927 253.145L339.899 253.537ZM332.955 247.013C331.929 247.013 331.005 247.247 330.183 247.713C329.362 248.161 328.699 248.805 328.195 249.645C327.71 250.467 327.43 251.4 327.355 252.445H338.555C338.499 251.4 338.219 250.467 337.715 249.645C337.211 248.824 336.549 248.18 335.727 247.713C334.906 247.247 333.982 247.013 332.955 247.013ZM347.954 260.621C346.778 260.621 345.658 260.444 344.594 260.089C343.53 259.735 342.7 259.287 342.102 258.745L342.746 257.625C343.344 258.129 344.109 258.549 345.042 258.885C345.994 259.221 346.984 259.389 348.01 259.389C349.485 259.389 350.568 259.147 351.258 258.661C351.968 258.176 352.322 257.504 352.322 256.645C352.322 256.029 352.126 255.544 351.734 255.189C351.361 254.835 350.894 254.573 350.334 254.405C349.774 254.237 349 254.06 348.01 253.873C346.853 253.668 345.92 253.444 345.21 253.201C344.501 252.959 343.894 252.567 343.39 252.025C342.886 251.484 342.634 250.737 342.634 249.785C342.634 248.628 343.11 247.676 344.062 246.929C345.033 246.164 346.405 245.781 348.178 245.781C349.112 245.781 350.036 245.912 350.95 246.173C351.865 246.435 352.612 246.78 353.19 247.209L352.546 248.329C351.949 247.9 351.268 247.573 350.502 247.349C349.737 247.125 348.953 247.013 348.15 247.013C346.788 247.013 345.761 247.265 345.07 247.769C344.38 248.273 344.034 248.936 344.034 249.757C344.034 250.411 344.23 250.924 344.622 251.297C345.014 251.652 345.49 251.923 346.05 252.109C346.629 252.277 347.432 252.464 348.458 252.669C349.597 252.875 350.512 253.099 351.202 253.341C351.912 253.565 352.509 253.939 352.994 254.461C353.48 254.984 353.722 255.703 353.722 256.617C353.722 257.831 353.218 258.801 352.21 259.529C351.202 260.257 349.784 260.621 347.954 260.621ZM369.978 253.537H357.405C357.443 254.676 357.732 255.693 358.273 256.589C358.815 257.467 359.543 258.148 360.457 258.633C361.391 259.119 362.436 259.361 363.593 259.361C364.545 259.361 365.423 259.193 366.225 258.857C367.047 258.503 367.728 257.989 368.269 257.317L369.082 258.241C368.447 259.007 367.644 259.595 366.673 260.005C365.721 260.416 364.685 260.621 363.565 260.621C362.109 260.621 360.812 260.304 359.673 259.669C358.535 259.035 357.639 258.157 356.985 257.037C356.351 255.917 356.033 254.639 356.033 253.201C356.033 251.783 356.332 250.513 356.929 249.393C357.545 248.255 358.385 247.368 359.449 246.733C360.513 246.099 361.708 245.781 363.033 245.781C364.359 245.781 365.544 246.099 366.589 246.733C367.653 247.349 368.484 248.217 369.082 249.337C369.698 250.457 370.006 251.727 370.006 253.145L369.978 253.537ZM363.033 247.013C362.007 247.013 361.083 247.247 360.261 247.713C359.44 248.161 358.777 248.805 358.273 249.645C357.788 250.467 357.508 251.4 357.433 252.445H368.633C368.577 251.4 368.297 250.467 367.793 249.645C367.289 248.824 366.627 248.18 365.805 247.713C364.984 247.247 364.06 247.013 363.033 247.013ZM379.265 245.781C381.075 245.781 382.466 246.248 383.437 247.181C384.407 248.096 384.893 249.449 384.893 251.241V260.509H383.549V257.905C383.082 258.764 382.401 259.436 381.505 259.921C380.609 260.388 379.535 260.621 378.285 260.621C376.661 260.621 375.373 260.239 374.421 259.473C373.487 258.708 373.021 257.7 373.021 256.449C373.021 255.236 373.45 254.256 374.309 253.509C375.186 252.744 376.577 252.361 378.481 252.361H383.493V251.185C383.493 249.823 383.119 248.787 382.373 248.077C381.645 247.368 380.571 247.013 379.153 247.013C378.182 247.013 377.249 247.181 376.353 247.517C375.475 247.853 374.729 248.301 374.113 248.861L373.413 247.853C374.141 247.2 375.018 246.696 376.045 246.341C377.071 245.968 378.145 245.781 379.265 245.781ZM378.481 259.473C379.694 259.473 380.721 259.193 381.561 258.633C382.419 258.073 383.063 257.261 383.493 256.197V253.453H378.509C377.071 253.453 376.026 253.715 375.373 254.237C374.738 254.76 374.421 255.479 374.421 256.393C374.421 257.345 374.775 258.101 375.485 258.661C376.194 259.203 377.193 259.473 378.481 259.473ZM392.005 249.085C392.453 248.021 393.153 247.209 394.105 246.649C395.057 246.071 396.214 245.781 397.577 245.781V247.153L397.241 247.125C395.617 247.125 394.347 247.639 393.433 248.665C392.518 249.673 392.061 251.083 392.061 252.893V260.509H390.661V245.893H392.005V249.085ZM407.476 260.621C406.058 260.621 404.788 260.304 403.668 259.669C402.548 259.035 401.671 258.157 401.036 257.037C400.402 255.899 400.084 254.62 400.084 253.201C400.084 251.764 400.402 250.485 401.036 249.365C401.671 248.227 402.548 247.349 403.668 246.733C404.788 246.099 406.058 245.781 407.476 245.781C408.652 245.781 409.716 246.015 410.668 246.481C411.639 246.929 412.423 247.592 413.02 248.469L411.984 249.225C411.462 248.497 410.808 247.956 410.024 247.601C409.259 247.228 408.41 247.041 407.476 247.041C406.338 247.041 405.311 247.303 404.396 247.825C403.5 248.329 402.791 249.048 402.268 249.981C401.764 250.915 401.512 251.988 401.512 253.201C401.512 254.415 401.764 255.488 402.268 256.421C402.791 257.355 403.5 258.083 404.396 258.605C405.311 259.109 406.338 259.361 407.476 259.361C408.41 259.361 409.259 259.184 410.024 258.829C410.808 258.456 411.462 257.905 411.984 257.177L413.02 257.933C412.423 258.811 411.639 259.483 410.668 259.949C409.716 260.397 408.652 260.621 407.476 260.621ZM424.352 245.781C426.181 245.781 427.628 246.313 428.692 247.377C429.756 248.441 430.288 249.972 430.288 251.969V260.509H428.888V252.081C428.888 250.439 428.468 249.188 427.628 248.329C426.806 247.471 425.649 247.041 424.156 247.041C422.438 247.041 421.085 247.555 420.096 248.581C419.106 249.608 418.612 250.989 418.612 252.725V260.509H417.212V239.733H418.612V248.945C419.116 247.937 419.862 247.163 420.852 246.621C421.841 246.061 423.008 245.781 424.352 245.781ZM443.243 245.893H444.643V260.509H443.243V245.893ZM443.943 242.337C443.625 242.337 443.355 242.235 443.131 242.029C442.907 241.805 442.795 241.535 442.795 241.217C442.795 240.9 442.907 240.629 443.131 240.405C443.355 240.181 443.625 240.069 443.943 240.069C444.26 240.069 444.531 240.181 444.755 240.405C444.979 240.611 445.091 240.872 445.091 241.189C445.091 241.507 444.979 241.777 444.755 242.001C444.531 242.225 444.26 242.337 443.943 242.337ZM457.684 245.781C459.513 245.781 460.96 246.313 462.024 247.377C463.088 248.441 463.62 249.972 463.62 251.969V260.509H462.22V252.081C462.22 250.439 461.8 249.188 460.96 248.329C460.138 247.471 458.981 247.041 457.488 247.041C455.77 247.041 454.417 247.555 453.428 248.581C452.438 249.608 451.944 250.989 451.944 252.725V260.509H450.544V245.893H451.888V249.057C452.392 248.031 453.138 247.228 454.128 246.649C455.136 246.071 456.321 245.781 457.684 245.781ZM476.635 259.585C476.281 259.921 475.833 260.183 475.291 260.369C474.769 260.537 474.218 260.621 473.639 260.621C472.37 260.621 471.39 260.276 470.699 259.585C470.009 258.876 469.663 257.896 469.663 256.645V247.097H466.975V245.893H469.663V242.701H471.063V245.893H475.711V247.097H471.063V256.505C471.063 257.457 471.287 258.185 471.735 258.689C472.202 259.175 472.883 259.417 473.779 259.417C474.694 259.417 475.45 259.147 476.047 258.605L476.635 259.585ZM486.252 260.621C484.87 260.621 483.62 260.304 482.5 259.669C481.398 259.035 480.53 258.157 479.896 257.037C479.261 255.899 478.944 254.62 478.944 253.201C478.944 251.783 479.261 250.513 479.896 249.393C480.53 248.255 481.398 247.368 482.5 246.733C483.62 246.099 484.87 245.781 486.252 245.781C487.633 245.781 488.874 246.099 489.976 246.733C491.096 247.368 491.973 248.255 492.608 249.393C493.242 250.513 493.56 251.783 493.56 253.201C493.56 254.62 493.242 255.899 492.608 257.037C491.973 258.157 491.096 259.035 489.976 259.669C488.874 260.304 487.633 260.621 486.252 260.621ZM486.252 259.361C487.372 259.361 488.37 259.1 489.248 258.577C490.144 258.055 490.844 257.327 491.348 256.393C491.87 255.46 492.132 254.396 492.132 253.201C492.132 252.007 491.87 250.943 491.348 250.009C490.844 249.076 490.144 248.348 489.248 247.825C488.37 247.303 487.372 247.041 486.252 247.041C485.132 247.041 484.124 247.303 483.228 247.825C482.35 248.348 481.65 249.076 481.128 250.009C480.624 250.943 480.372 252.007 480.372 253.201C480.372 254.396 480.624 255.46 481.128 256.393C481.65 257.327 482.35 258.055 483.228 258.577C484.124 259.1 485.132 259.361 486.252 259.361ZM510.89 260.621C509.472 260.621 508.202 260.304 507.082 259.669C505.962 259.035 505.085 258.157 504.45 257.037C503.816 255.899 503.498 254.62 503.498 253.201C503.498 251.764 503.816 250.485 504.45 249.365C505.085 248.227 505.962 247.349 507.082 246.733C508.202 246.099 509.472 245.781 510.89 245.781C512.066 245.781 513.13 246.015 514.082 246.481C515.053 246.929 515.837 247.592 516.434 248.469L515.398 249.225C514.876 248.497 514.222 247.956 513.438 247.601C512.673 247.228 511.824 247.041 510.89 247.041C509.752 247.041 508.725 247.303 507.81 247.825C506.914 248.329 506.205 249.048 505.682 249.981C505.178 250.915 504.926 251.988 504.926 253.201C504.926 254.415 505.178 255.488 505.682 256.421C506.205 257.355 506.914 258.083 507.81 258.605C508.725 259.109 509.752 259.361 510.89 259.361C511.824 259.361 512.673 259.184 513.438 258.829C514.222 258.456 514.876 257.905 515.398 257.177L516.434 257.933C515.837 258.811 515.053 259.483 514.082 259.949C513.13 260.397 512.066 260.621 510.89 260.621ZM521.97 249.085C522.418 248.021 523.118 247.209 524.07 246.649C525.022 246.071 526.179 245.781 527.542 245.781V247.153L527.206 247.125C525.582 247.125 524.312 247.639 523.398 248.665C522.483 249.673 522.026 251.083 522.026 252.893V260.509H520.626V245.893H521.97V249.085ZM543.993 253.537H531.421C531.458 254.676 531.748 255.693 532.289 256.589C532.83 257.467 533.558 258.148 534.473 258.633C535.406 259.119 536.452 259.361 537.609 259.361C538.561 259.361 539.438 259.193 540.241 258.857C541.062 258.503 541.744 257.989 542.285 257.317L543.097 258.241C542.462 259.007 541.66 259.595 540.689 260.005C539.737 260.416 538.701 260.621 537.581 260.621C536.125 260.621 534.828 260.304 533.689 259.669C532.55 259.035 531.654 258.157 531.001 257.037C530.366 255.917 530.049 254.639 530.049 253.201C530.049 251.783 530.348 250.513 530.945 249.393C531.561 248.255 532.401 247.368 533.465 246.733C534.529 246.099 535.724 245.781 537.049 245.781C538.374 245.781 539.56 246.099 540.605 246.733C541.669 247.349 542.5 248.217 543.097 249.337C543.713 250.457 544.021 251.727 544.021 253.145L543.993 253.537ZM537.049 247.013C536.022 247.013 535.098 247.247 534.277 247.713C533.456 248.161 532.793 248.805 532.289 249.645C531.804 250.467 531.524 251.4 531.449 252.445H542.649C542.593 251.4 542.313 250.467 541.809 249.645C541.305 248.824 540.642 248.18 539.821 247.713C539 247.247 538.076 247.013 537.049 247.013ZM553.28 245.781C555.091 245.781 556.481 246.248 557.452 247.181C558.423 248.096 558.908 249.449 558.908 251.241V260.509H557.564V257.905C557.097 258.764 556.416 259.436 555.52 259.921C554.624 260.388 553.551 260.621 552.3 260.621C550.676 260.621 549.388 260.239 548.436 259.473C547.503 258.708 547.036 257.7 547.036 256.449C547.036 255.236 547.465 254.256 548.324 253.509C549.201 252.744 550.592 252.361 552.496 252.361H557.508V251.185C557.508 249.823 557.135 248.787 556.388 248.077C555.66 247.368 554.587 247.013 553.168 247.013C552.197 247.013 551.264 247.181 550.368 247.517C549.491 247.853 548.744 248.301 548.128 248.861L547.428 247.853C548.156 247.2 549.033 246.696 550.06 246.341C551.087 245.968 552.16 245.781 553.28 245.781ZM552.496 259.473C553.709 259.473 554.736 259.193 555.576 258.633C556.435 258.073 557.079 257.261 557.508 256.197V253.453H552.524C551.087 253.453 550.041 253.715 549.388 254.237C548.753 254.76 548.436 255.479 548.436 256.393C548.436 257.345 548.791 258.101 549.5 258.661C550.209 259.203 551.208 259.473 552.496 259.473ZM571.928 259.585C571.574 259.921 571.126 260.183 570.584 260.369C570.062 260.537 569.511 260.621 568.932 260.621C567.663 260.621 566.683 260.276 565.992 259.585C565.302 258.876 564.956 257.896 564.956 256.645V247.097H562.268V245.893H564.956V242.701H566.356V245.893H571.004V247.097H566.356V256.505C566.356 257.457 566.58 258.185 567.028 258.689C567.495 259.175 568.176 259.417 569.072 259.417C569.987 259.417 570.743 259.147 571.34 258.605L571.928 259.585ZM575.833 245.893H577.233V260.509H575.833V245.893ZM576.533 242.337C576.215 242.337 575.945 242.235 575.721 242.029C575.497 241.805 575.385 241.535 575.385 241.217C575.385 240.9 575.497 240.629 575.721 240.405C575.945 240.181 576.215 240.069 576.533 240.069C576.85 240.069 577.121 240.181 577.345 240.405C577.569 240.611 577.681 240.872 577.681 241.189C577.681 241.507 577.569 241.777 577.345 242.001C577.121 242.225 576.85 242.337 576.533 242.337ZM594.865 245.893L588.257 260.509H586.829L580.249 245.893H581.733L587.557 258.969L593.437 245.893H594.865ZM610.274 253.537H597.702C597.74 254.676 598.029 255.693 598.57 256.589C599.112 257.467 599.84 258.148 600.754 258.633C601.688 259.119 602.733 259.361 603.89 259.361C604.842 259.361 605.72 259.193 606.522 258.857C607.344 258.503 608.025 257.989 608.566 257.317L609.378 258.241C608.744 259.007 607.941 259.595 606.97 260.005C606.018 260.416 604.982 260.621 603.862 260.621C602.406 260.621 601.109 260.304 599.97 259.669C598.832 259.035 597.936 258.157 597.282 257.037C596.648 255.917 596.33 254.639 596.33 253.201C596.33 251.783 596.629 250.513 597.226 249.393C597.842 248.255 598.682 247.368 599.746 246.733C600.81 246.099 602.005 245.781 603.33 245.781C604.656 245.781 605.841 246.099 606.886 246.733C607.95 247.349 608.781 248.217 609.378 249.337C609.994 250.457 610.302 251.727 610.302 253.145L610.274 253.537ZM603.33 247.013C602.304 247.013 601.38 247.247 600.558 247.713C599.737 248.161 599.074 248.805 598.57 249.645C598.085 250.467 597.805 251.4 597.73 252.445H608.93C608.874 251.4 608.594 250.467 608.09 249.645C607.586 248.824 606.924 248.18 606.102 247.713C605.281 247.247 604.357 247.013 603.33 247.013ZM626.753 245.781C628.563 245.781 629.954 246.248 630.925 247.181C631.895 248.096 632.381 249.449 632.381 251.241V260.509H631.037V257.905C630.57 258.764 629.889 259.436 628.993 259.921C628.097 260.388 627.023 260.621 625.773 260.621C624.149 260.621 622.861 260.239 621.909 259.473C620.975 258.708 620.509 257.7 620.509 256.449C620.509 255.236 620.938 254.256 621.797 253.509C622.674 252.744 624.065 252.361 625.969 252.361H630.981V251.185C630.981 249.823 630.607 248.787 629.861 248.077C629.133 247.368 628.059 247.013 626.641 247.013C625.67 247.013 624.737 247.181 623.841 247.517C622.963 247.853 622.217 248.301 621.601 248.861L620.901 247.853C621.629 247.2 622.506 246.696 623.533 246.341C624.559 245.968 625.633 245.781 626.753 245.781ZM625.969 259.473C627.182 259.473 628.209 259.193 629.049 258.633C629.907 258.073 630.551 257.261 630.981 256.197V253.453H625.997C624.559 253.453 623.514 253.715 622.861 254.237C622.226 254.76 621.909 255.479 621.909 256.393C621.909 257.345 622.263 258.101 622.973 258.661C623.682 259.203 624.681 259.473 625.969 259.473ZM645.289 245.781C647.118 245.781 648.565 246.313 649.629 247.377C650.693 248.441 651.225 249.972 651.225 251.969V260.509H649.825V252.081C649.825 250.439 649.405 249.188 648.565 248.329C647.744 247.471 646.586 247.041 645.093 247.041C643.376 247.041 642.022 247.555 641.033 248.581C640.044 249.608 639.549 250.989 639.549 252.725V260.509H638.149V245.893H639.493V249.057C639.997 248.031 640.744 247.228 641.733 246.649C642.741 246.071 643.926 245.781 645.289 245.781ZM669.981 239.733V260.509H668.609V257.065C668.03 258.204 667.218 259.081 666.173 259.697C665.128 260.313 663.942 260.621 662.617 260.621C661.254 260.621 660.022 260.304 658.921 259.669C657.82 259.035 656.952 258.157 656.317 257.037C655.701 255.917 655.393 254.639 655.393 253.201C655.393 251.764 655.701 250.485 656.317 249.365C656.952 248.227 657.82 247.349 658.921 246.733C660.022 246.099 661.254 245.781 662.617 245.781C663.924 245.781 665.09 246.089 666.117 246.705C667.162 247.321 667.984 248.18 668.581 249.281V239.733H669.981ZM662.701 259.361C663.821 259.361 664.82 259.1 665.697 258.577C666.593 258.055 667.293 257.327 667.797 256.393C668.32 255.46 668.581 254.396 668.581 253.201C668.581 252.007 668.32 250.943 667.797 250.009C667.293 249.076 666.593 248.348 665.697 247.825C664.82 247.303 663.821 247.041 662.701 247.041C661.581 247.041 660.573 247.303 659.677 247.825C658.8 248.348 658.1 249.076 657.577 250.009C657.073 250.943 656.821 252.007 656.821 253.201C656.821 254.396 657.073 255.46 657.577 256.393C658.1 257.327 658.8 258.055 659.677 258.577C660.573 259.1 661.581 259.361 662.701 259.361ZM98.9029 279.893H100.303V294.509H98.9029V279.893ZM99.6029 276.337C99.2856 276.337 99.0149 276.235 98.7909 276.029C98.5669 275.805 98.4549 275.535 98.4549 275.217C98.4549 274.9 98.5669 274.629 98.7909 274.405C99.0149 274.181 99.2856 274.069 99.6029 274.069C99.9203 274.069 100.191 274.181 100.415 274.405C100.639 274.611 100.751 274.872 100.751 275.189C100.751 275.507 100.639 275.777 100.415 276.001C100.191 276.225 99.9203 276.337 99.6029 276.337ZM113.344 279.781C115.173 279.781 116.62 280.313 117.684 281.377C118.748 282.441 119.28 283.972 119.28 285.969V294.509H117.88V286.081C117.88 284.439 117.46 283.188 116.62 282.329C115.798 281.471 114.641 281.041 113.148 281.041C111.43 281.041 110.077 281.555 109.088 282.581C108.098 283.608 107.604 284.989 107.604 286.725V294.509H106.204V279.893H107.548V283.057C108.052 282.031 108.798 281.228 109.788 280.649C110.796 280.071 111.981 279.781 113.344 279.781ZM132.184 279.781C134.013 279.781 135.46 280.313 136.524 281.377C137.588 282.441 138.12 283.972 138.12 285.969V294.509H136.72V286.081C136.72 284.439 136.3 283.188 135.46 282.329C134.638 281.471 133.481 281.041 131.988 281.041C130.27 281.041 128.917 281.555 127.928 282.581C126.938 283.608 126.444 284.989 126.444 286.725V294.509H125.044V279.893H126.388V283.057C126.892 282.031 127.638 281.228 128.628 280.649C129.636 280.071 130.821 279.781 132.184 279.781ZM149.595 294.621C148.214 294.621 146.963 294.304 145.843 293.669C144.742 293.035 143.874 292.157 143.239 291.037C142.605 289.899 142.287 288.62 142.287 287.201C142.287 285.783 142.605 284.513 143.239 283.393C143.874 282.255 144.742 281.368 145.843 280.733C146.963 280.099 148.214 279.781 149.595 279.781C150.977 279.781 152.218 280.099 153.319 280.733C154.439 281.368 155.317 282.255 155.951 283.393C156.586 284.513 156.903 285.783 156.903 287.201C156.903 288.62 156.586 289.899 155.951 291.037C155.317 292.157 154.439 293.035 153.319 293.669C152.218 294.304 150.977 294.621 149.595 294.621ZM149.595 293.361C150.715 293.361 151.714 293.1 152.591 292.577C153.487 292.055 154.187 291.327 154.691 290.393C155.214 289.46 155.475 288.396 155.475 287.201C155.475 286.007 155.214 284.943 154.691 284.009C154.187 283.076 153.487 282.348 152.591 281.825C151.714 281.303 150.715 281.041 149.595 281.041C148.475 281.041 147.467 281.303 146.571 281.825C145.694 282.348 144.994 283.076 144.471 284.009C143.967 284.943 143.715 286.007 143.715 287.201C143.715 288.396 143.967 289.46 144.471 290.393C144.994 291.327 145.694 292.055 146.571 292.577C147.467 293.1 148.475 293.361 149.595 293.361ZM172.979 279.893L166.371 294.509H164.943L158.363 279.893H159.847L165.671 292.969L171.551 279.893H172.979ZM180.968 279.781C182.778 279.781 184.169 280.248 185.14 281.181C186.11 282.096 186.596 283.449 186.596 285.241V294.509H185.252V291.905C184.785 292.764 184.104 293.436 183.208 293.921C182.312 294.388 181.238 294.621 179.988 294.621C178.364 294.621 177.076 294.239 176.124 293.473C175.19 292.708 174.724 291.7 174.724 290.449C174.724 289.236 175.153 288.256 176.012 287.509C176.889 286.744 178.28 286.361 180.184 286.361H185.196V285.185C185.196 283.823 184.822 282.787 184.076 282.077C183.348 281.368 182.274 281.013 180.856 281.013C179.885 281.013 178.952 281.181 178.056 281.517C177.178 281.853 176.432 282.301 175.816 282.861L175.116 281.853C175.844 281.2 176.721 280.696 177.748 280.341C178.774 279.968 179.848 279.781 180.968 279.781ZM180.184 293.473C181.397 293.473 182.424 293.193 183.264 292.633C184.122 292.073 184.766 291.261 185.196 290.197V287.453H180.212C178.774 287.453 177.729 287.715 177.076 288.237C176.441 288.76 176.124 289.479 176.124 290.393C176.124 291.345 176.478 292.101 177.188 292.661C177.897 293.203 178.896 293.473 180.184 293.473ZM199.616 293.585C199.261 293.921 198.813 294.183 198.272 294.369C197.749 294.537 197.199 294.621 196.62 294.621C195.351 294.621 194.371 294.276 193.68 293.585C192.989 292.876 192.644 291.896 192.644 290.645V281.097H189.956V279.893H192.644V276.701H194.044V279.893H198.692V281.097H194.044V290.505C194.044 291.457 194.268 292.185 194.716 292.689C195.183 293.175 195.864 293.417 196.76 293.417C197.675 293.417 198.431 293.147 199.028 292.605L199.616 293.585ZM203.52 279.893H204.92V294.509H203.52V279.893ZM204.22 276.337C203.903 276.337 203.632 276.235 203.408 276.029C203.184 275.805 203.072 275.535 203.072 275.217C203.072 274.9 203.184 274.629 203.408 274.405C203.632 274.181 203.903 274.069 204.22 274.069C204.537 274.069 204.808 274.181 205.032 274.405C205.256 274.611 205.368 274.872 205.368 275.189C205.368 275.507 205.256 275.777 205.032 276.001C204.808 276.225 204.537 276.337 204.22 276.337ZM222.553 279.893L215.945 294.509H214.517L207.937 279.893H209.421L215.245 292.969L221.125 279.893H222.553ZM237.962 287.537H225.39C225.427 288.676 225.717 289.693 226.258 290.589C226.799 291.467 227.527 292.148 228.442 292.633C229.375 293.119 230.421 293.361 231.578 293.361C232.53 293.361 233.407 293.193 234.21 292.857C235.031 292.503 235.713 291.989 236.254 291.317L237.066 292.241C236.431 293.007 235.629 293.595 234.658 294.005C233.706 294.416 232.67 294.621 231.55 294.621C230.094 294.621 228.797 294.304 227.658 293.669C226.519 293.035 225.623 292.157 224.97 291.037C224.335 289.917 224.018 288.639 224.018 287.201C224.018 285.783 224.317 284.513 224.914 283.393C225.53 282.255 226.37 281.368 227.434 280.733C228.498 280.099 229.693 279.781 231.018 279.781C232.343 279.781 233.529 280.099 234.574 280.733C235.638 281.349 236.469 282.217 237.066 283.337C237.682 284.457 237.99 285.727 237.99 287.145L237.962 287.537ZM231.018 281.013C229.991 281.013 229.067 281.247 228.246 281.713C227.425 282.161 226.762 282.805 226.258 283.645C225.773 284.467 225.493 285.4 225.418 286.445H236.618C236.562 285.4 236.282 284.467 235.778 283.645C235.274 282.824 234.611 282.18 233.79 281.713C232.969 281.247 232.045 281.013 231.018 281.013ZM262.308 279.893V294.509H260.964V291.373C260.479 292.4 259.76 293.203 258.808 293.781C257.856 294.341 256.736 294.621 255.448 294.621C253.544 294.621 252.051 294.089 250.968 293.025C249.886 291.961 249.344 290.431 249.344 288.433V279.893H250.744V288.321C250.744 289.964 251.164 291.215 252.004 292.073C252.844 292.932 254.03 293.361 255.56 293.361C257.203 293.361 258.5 292.848 259.452 291.821C260.423 290.795 260.908 289.413 260.908 287.677V279.893H262.308ZM271.939 294.621C270.763 294.621 269.643 294.444 268.579 294.089C267.515 293.735 266.684 293.287 266.087 292.745L266.731 291.625C267.328 292.129 268.093 292.549 269.027 292.885C269.979 293.221 270.968 293.389 271.995 293.389C273.469 293.389 274.552 293.147 275.243 292.661C275.952 292.176 276.307 291.504 276.307 290.645C276.307 290.029 276.111 289.544 275.719 289.189C275.345 288.835 274.879 288.573 274.319 288.405C273.759 288.237 272.984 288.06 271.995 287.873C270.837 287.668 269.904 287.444 269.195 287.201C268.485 286.959 267.879 286.567 267.375 286.025C266.871 285.484 266.619 284.737 266.619 283.785C266.619 282.628 267.095 281.676 268.047 280.929C269.017 280.164 270.389 279.781 272.163 279.781C273.096 279.781 274.02 279.912 274.935 280.173C275.849 280.435 276.596 280.78 277.175 281.209L276.531 282.329C275.933 281.9 275.252 281.573 274.487 281.349C273.721 281.125 272.937 281.013 272.135 281.013C270.772 281.013 269.745 281.265 269.055 281.769C268.364 282.273 268.019 282.936 268.019 283.757C268.019 284.411 268.215 284.924 268.607 285.297C268.999 285.652 269.475 285.923 270.035 286.109C270.613 286.277 271.416 286.464 272.443 286.669C273.581 286.875 274.496 287.099 275.187 287.341C275.896 287.565 276.493 287.939 276.979 288.461C277.464 288.984 277.707 289.703 277.707 290.617C277.707 291.831 277.203 292.801 276.195 293.529C275.187 294.257 273.768 294.621 271.939 294.621ZM293.962 287.537H281.39C281.427 288.676 281.717 289.693 282.258 290.589C282.799 291.467 283.527 292.148 284.442 292.633C285.375 293.119 286.421 293.361 287.578 293.361C288.53 293.361 289.407 293.193 290.21 292.857C291.031 292.503 291.713 291.989 292.254 291.317L293.066 292.241C292.431 293.007 291.629 293.595 290.658 294.005C289.706 294.416 288.67 294.621 287.55 294.621C286.094 294.621 284.797 294.304 283.658 293.669C282.519 293.035 281.623 292.157 280.97 291.037C280.335 289.917 280.018 288.639 280.018 287.201C280.018 285.783 280.317 284.513 280.914 283.393C281.53 282.255 282.37 281.368 283.434 280.733C284.498 280.099 285.693 279.781 287.018 279.781C288.343 279.781 289.529 280.099 290.574 280.733C291.638 281.349 292.469 282.217 293.066 283.337C293.682 284.457 293.99 285.727 293.99 287.145L293.962 287.537ZM287.018 281.013C285.991 281.013 285.067 281.247 284.246 281.713C283.425 282.161 282.762 282.805 282.258 283.645C281.773 284.467 281.493 285.4 281.418 286.445H292.618C292.562 285.4 292.282 284.467 291.778 283.645C291.274 282.824 290.611 282.18 289.79 281.713C288.969 281.247 288.045 281.013 287.018 281.013ZM299.665 283.085C300.113 282.021 300.813 281.209 301.765 280.649C302.717 280.071 303.874 279.781 305.237 279.781V281.153L304.901 281.125C303.277 281.125 302.008 281.639 301.093 282.665C300.178 283.673 299.721 285.083 299.721 286.893V294.509H298.321V279.893H299.665V283.085ZM308.108 286.361H315.304V287.621H308.108V286.361ZM324.4 274.825C322.571 274.825 321.656 275.805 321.656 277.765V279.893H326.332V281.097H321.684V294.509H320.284V281.097H317.596V279.893H320.284V277.653C320.284 276.421 320.639 275.441 321.348 274.713C322.058 273.985 323.056 273.621 324.344 273.621C324.904 273.621 325.436 273.705 325.94 273.873C326.463 274.023 326.892 274.256 327.228 274.573L326.668 275.637C326.071 275.096 325.315 274.825 324.4 274.825ZM330.536 283.085C330.984 282.021 331.684 281.209 332.636 280.649C333.588 280.071 334.745 279.781 336.108 279.781V281.153L335.772 281.125C334.148 281.125 332.879 281.639 331.964 282.665C331.049 283.673 330.592 285.083 330.592 286.893V294.509H329.192V279.893H330.536V283.085ZM340.212 279.893H341.612V294.509H340.212V279.893ZM340.912 276.337C340.594 276.337 340.324 276.235 340.1 276.029C339.876 275.805 339.764 275.535 339.764 275.217C339.764 274.9 339.876 274.629 340.1 274.405C340.324 274.181 340.594 274.069 340.912 274.069C341.229 274.069 341.5 274.181 341.724 274.405C341.948 274.611 342.06 274.872 342.06 275.189C342.06 275.507 341.948 275.777 341.724 276.001C341.5 276.225 341.229 276.337 340.912 276.337ZM359.86 287.537H347.288C347.326 288.676 347.615 289.693 348.156 290.589C348.698 291.467 349.426 292.148 350.34 292.633C351.274 293.119 352.319 293.361 353.476 293.361C354.428 293.361 355.306 293.193 356.108 292.857C356.93 292.503 357.611 291.989 358.152 291.317L358.964 292.241C358.33 293.007 357.527 293.595 356.556 294.005C355.604 294.416 354.568 294.621 353.448 294.621C351.992 294.621 350.695 294.304 349.556 293.669C348.418 293.035 347.522 292.157 346.868 291.037C346.234 289.917 345.916 288.639 345.916 287.201C345.916 285.783 346.215 284.513 346.812 283.393C347.428 282.255 348.268 281.368 349.332 280.733C350.396 280.099 351.591 279.781 352.916 279.781C354.242 279.781 355.427 280.099 356.472 280.733C357.536 281.349 358.367 282.217 358.964 283.337C359.58 284.457 359.888 285.727 359.888 287.145L359.86 287.537ZM352.916 281.013C351.89 281.013 350.966 281.247 350.144 281.713C349.323 282.161 348.66 282.805 348.156 283.645C347.671 284.467 347.391 285.4 347.316 286.445H358.516C358.46 285.4 358.18 284.467 357.676 283.645C357.172 282.824 356.51 282.18 355.688 281.713C354.867 281.247 353.943 281.013 352.916 281.013ZM371.359 279.781C373.189 279.781 374.635 280.313 375.699 281.377C376.763 282.441 377.295 283.972 377.295 285.969V294.509H375.895V286.081C375.895 284.439 375.475 283.188 374.635 282.329C373.814 281.471 372.657 281.041 371.163 281.041C369.446 281.041 368.093 281.555 367.103 282.581C366.114 283.608 365.619 284.989 365.619 286.725V294.509H364.219V279.893H365.563V283.057C366.067 282.031 366.814 281.228 367.803 280.649C368.811 280.071 369.997 279.781 371.359 279.781ZM396.051 273.733V294.509H394.679V291.065C394.101 292.204 393.289 293.081 392.243 293.697C391.198 294.313 390.013 294.621 388.687 294.621C387.325 294.621 386.093 294.304 384.991 293.669C383.89 293.035 383.022 292.157 382.387 291.037C381.771 289.917 381.463 288.639 381.463 287.201C381.463 285.764 381.771 284.485 382.387 283.365C383.022 282.227 383.89 281.349 384.991 280.733C386.093 280.099 387.325 279.781 388.687 279.781C389.994 279.781 391.161 280.089 392.187 280.705C393.233 281.321 394.054 282.18 394.651 283.281V273.733H396.051ZM388.771 293.361C389.891 293.361 390.89 293.1 391.767 292.577C392.663 292.055 393.363 291.327 393.867 290.393C394.39 289.46 394.651 288.396 394.651 287.201C394.651 286.007 394.39 284.943 393.867 284.009C393.363 283.076 392.663 282.348 391.767 281.825C390.89 281.303 389.891 281.041 388.771 281.041C387.651 281.041 386.643 281.303 385.747 281.825C384.87 282.348 384.17 283.076 383.647 284.009C383.143 284.943 382.891 286.007 382.891 287.201C382.891 288.396 383.143 289.46 383.647 290.393C384.17 291.327 384.87 292.055 385.747 292.577C386.643 293.1 387.651 293.361 388.771 293.361ZM401.954 273.733H403.354V294.509H401.954V273.733ZM420.987 279.893L413.482 296.497C412.922 297.785 412.269 298.7 411.522 299.241C410.794 299.783 409.926 300.053 408.918 300.053C408.246 300.053 407.612 299.941 407.014 299.717C406.436 299.493 405.941 299.167 405.53 298.737L406.23 297.673C406.977 298.439 407.882 298.821 408.946 298.821C409.656 298.821 410.262 298.625 410.766 298.233C411.27 297.841 411.737 297.169 412.166 296.217L412.95 294.453L406.37 279.893H407.854L413.706 292.969L419.559 279.893H420.987ZM438.575 279.781C439.938 279.781 441.17 280.099 442.271 280.733C443.372 281.368 444.231 282.245 444.847 283.365C445.482 284.485 445.799 285.764 445.799 287.201C445.799 288.639 445.482 289.927 444.847 291.065C444.231 292.185 443.372 293.063 442.271 293.697C441.17 294.313 439.938 294.621 438.575 294.621C437.287 294.621 436.12 294.323 435.075 293.725C434.03 293.109 433.218 292.26 432.639 291.177V299.941H431.239V279.893H432.583V283.337C433.162 282.217 433.974 281.349 435.019 280.733C436.083 280.099 437.268 279.781 438.575 279.781ZM438.491 293.361C439.611 293.361 440.619 293.1 441.515 292.577C442.411 292.055 443.111 291.327 443.615 290.393C444.138 289.46 444.399 288.396 444.399 287.201C444.399 286.007 444.138 284.943 443.615 284.009C443.111 283.076 442.411 282.348 441.515 281.825C440.619 281.303 439.611 281.041 438.491 281.041C437.371 281.041 436.363 281.303 435.467 281.825C434.59 282.348 433.89 283.076 433.367 284.009C432.863 284.943 432.611 286.007 432.611 287.201C432.611 288.396 432.863 289.46 433.367 290.393C433.89 291.327 434.59 292.055 435.467 292.577C436.363 293.1 437.371 293.361 438.491 293.361ZM450.133 273.733H451.533V294.509H450.133V273.733ZM462.362 279.781C464.173 279.781 465.564 280.248 466.534 281.181C467.505 282.096 467.99 283.449 467.99 285.241V294.509H466.646V291.905C466.18 292.764 465.498 293.436 464.602 293.921C463.706 294.388 462.633 294.621 461.382 294.621C459.758 294.621 458.47 294.239 457.518 293.473C456.585 292.708 456.118 291.7 456.118 290.449C456.118 289.236 456.548 288.256 457.406 287.509C458.284 286.744 459.674 286.361 461.578 286.361H466.59V285.185C466.59 283.823 466.217 282.787 465.47 282.077C464.742 281.368 463.669 281.013 462.25 281.013C461.28 281.013 460.346 281.181 459.45 281.517C458.573 281.853 457.826 282.301 457.21 282.861L456.51 281.853C457.238 281.2 458.116 280.696 459.142 280.341C460.169 279.968 461.242 279.781 462.362 279.781ZM461.578 293.473C462.792 293.473 463.818 293.193 464.658 292.633C465.517 292.073 466.161 291.261 466.59 290.197V287.453H461.606C460.169 287.453 459.124 287.715 458.47 288.237C457.836 288.76 457.518 289.479 457.518 290.393C457.518 291.345 457.873 292.101 458.582 292.661C459.292 293.203 460.29 293.473 461.578 293.473ZM481.01 293.585C480.656 293.921 480.208 294.183 479.666 294.369C479.144 294.537 478.593 294.621 478.014 294.621C476.745 294.621 475.765 294.276 475.074 293.585C474.384 292.876 474.038 291.896 474.038 290.645V281.097H471.35V279.893H474.038V276.701H475.438V279.893H480.086V281.097H475.438V290.505C475.438 291.457 475.662 292.185 476.11 292.689C476.577 293.175 477.258 293.417 478.154 293.417C479.069 293.417 479.825 293.147 480.422 292.605L481.01 293.585ZM489.311 274.825C487.481 274.825 486.567 275.805 486.567 277.765V279.893H491.243V281.097H486.595V294.509H485.195V281.097H482.507V279.893H485.195V277.653C485.195 276.421 485.549 275.441 486.259 274.713C486.968 273.985 487.967 273.621 489.255 273.621C489.815 273.621 490.347 273.705 490.851 273.873C491.373 274.023 491.803 274.256 492.139 274.573L491.579 275.637C490.981 275.096 490.225 274.825 489.311 274.825ZM499.814 294.621C498.433 294.621 497.182 294.304 496.062 293.669C494.961 293.035 494.093 292.157 493.458 291.037C492.823 289.899 492.506 288.62 492.506 287.201C492.506 285.783 492.823 284.513 493.458 283.393C494.093 282.255 494.961 281.368 496.062 280.733C497.182 280.099 498.433 279.781 499.814 279.781C501.195 279.781 502.437 280.099 503.538 280.733C504.658 281.368 505.535 282.255 506.17 283.393C506.805 284.513 507.122 285.783 507.122 287.201C507.122 288.62 506.805 289.899 506.17 291.037C505.535 292.157 504.658 293.035 503.538 293.669C502.437 294.304 501.195 294.621 499.814 294.621ZM499.814 293.361C500.934 293.361 501.933 293.1 502.81 292.577C503.706 292.055 504.406 291.327 504.91 290.393C505.433 289.46 505.694 288.396 505.694 287.201C505.694 286.007 505.433 284.943 504.91 284.009C504.406 283.076 503.706 282.348 502.81 281.825C501.933 281.303 500.934 281.041 499.814 281.041C498.694 281.041 497.686 281.303 496.79 281.825C495.913 282.348 495.213 283.076 494.69 284.009C494.186 284.943 493.934 286.007 493.934 287.201C493.934 288.396 494.186 289.46 494.69 290.393C495.213 291.327 495.913 292.055 496.79 292.577C497.686 293.1 498.694 293.361 499.814 293.361ZM512.809 283.085C513.257 282.021 513.957 281.209 514.909 280.649C515.861 280.071 517.019 279.781 518.381 279.781V281.153L518.045 281.125C516.421 281.125 515.152 281.639 514.237 282.665C513.323 283.673 512.865 285.083 512.865 286.893V294.509H511.465V279.893H512.809V283.085ZM540.685 279.781C542.496 279.781 543.914 280.313 544.941 281.377C545.986 282.441 546.509 283.972 546.509 285.969V294.509H545.109V286.081C545.109 284.439 544.708 283.188 543.905 282.329C543.102 281.471 541.982 281.041 540.545 281.041C538.902 281.041 537.596 281.555 536.625 282.581C535.673 283.608 535.197 284.989 535.197 286.725V294.509H533.797V286.081C533.797 284.439 533.396 283.188 532.593 282.329C531.79 281.471 530.67 281.041 529.233 281.041C527.59 281.041 526.284 281.555 525.313 282.581C524.361 283.608 523.885 284.989 523.885 286.725V294.509H522.485V279.893H523.829V283.029C524.314 282.003 525.033 281.209 525.985 280.649C526.956 280.071 528.104 279.781 529.429 279.781C530.754 279.781 531.874 280.08 532.789 280.677C533.722 281.275 534.385 282.152 534.777 283.309C535.262 282.227 536.018 281.368 537.045 280.733C538.09 280.099 539.304 279.781 540.685 279.781ZM555.986 294.621C554.81 294.621 553.69 294.444 552.626 294.089C551.562 293.735 550.731 293.287 550.134 292.745L550.778 291.625C551.375 292.129 552.14 292.549 553.074 292.885C554.026 293.221 555.015 293.389 556.042 293.389C557.516 293.389 558.599 293.147 559.29 292.661C559.999 292.176 560.354 291.504 560.354 290.645C560.354 290.029 560.158 289.544 559.766 289.189C559.392 288.835 558.926 288.573 558.366 288.405C557.806 288.237 557.031 288.06 556.042 287.873C554.884 287.668 553.951 287.444 553.242 287.201C552.532 286.959 551.926 286.567 551.422 286.025C550.918 285.484 550.666 284.737 550.666 283.785C550.666 282.628 551.142 281.676 552.094 280.929C553.064 280.164 554.436 279.781 556.21 279.781C557.143 279.781 558.067 279.912 558.982 280.173C559.896 280.435 560.643 280.78 561.222 281.209L560.578 282.329C559.98 281.9 559.299 281.573 558.534 281.349C557.768 281.125 556.984 281.013 556.182 281.013C554.819 281.013 553.792 281.265 553.102 281.769C552.411 282.273 552.066 282.936 552.066 283.757C552.066 284.411 552.262 284.924 552.654 285.297C553.046 285.652 553.522 285.923 554.082 286.109C554.66 286.277 555.463 286.464 556.49 286.669C557.628 286.875 558.543 287.099 559.234 287.341C559.943 287.565 560.54 287.939 561.026 288.461C561.511 288.984 561.754 289.703 561.754 290.617C561.754 291.831 561.25 292.801 560.242 293.529C559.234 294.257 557.815 294.621 555.986 294.621ZM565.493 294.621C565.175 294.621 564.895 294.509 564.653 294.285C564.429 294.043 564.317 293.753 564.317 293.417C564.317 293.081 564.429 292.801 564.653 292.577C564.895 292.353 565.175 292.241 565.493 292.241C565.81 292.241 566.081 292.353 566.305 292.577C566.547 292.801 566.669 293.081 566.669 293.417C566.669 293.753 566.547 294.043 566.305 294.285C566.081 294.509 565.81 294.621 565.493 294.621Z" fill="black"/>
</svg>
